<svg xmlns="http://www.w3.org/2000/svg" viewBox="0 0 220 100" fill="none" stroke="currentColor" stroke-width="2.5">
  <circle cx="110" cy="48" r="42" stroke-width="2.5"/>
  <circle cx="110" cy="48" r="38" stroke-width="1.5" opacity="0.5"/>
  <!-- RJ45 receptacle opening with lead-in geometry -->
  <path d="M94 34 H126 V45.5 L120 61 H100 L94 45.5 Z" stroke-width="2" stroke-linejoin="round"/>
  <line x1="99.5" y1="39.2" x2="98.4" y2="45.2" stroke-width="1" opacity="0.58"/>
  <line x1="102.8" y1="39.2" x2="101.7" y2="45.2" stroke-width="1" opacity="0.58"/>
  <line x1="106.1" y1="39.2" x2="105.0" y2="45.2" stroke-width="1" opacity="0.58"/>
  <line x1="109.4" y1="39.2" x2="108.3" y2="45.2" stroke-width="1" opacity="0.58"/>
  <line x1="112.7" y1="39.2" x2="111.6" y2="45.2" stroke-width="1" opacity="0.58"/>
  <line x1="116.0" y1="39.2" x2="114.9" y2="45.2" stroke-width="1" opacity="0.58"/>
  <line x1="119.3" y1="39.2" x2="118.2" y2="45.2" stroke-width="1" opacity="0.58"/>
  <line x1="122.6" y1="39.2" x2="121.5" y2="45.2" stroke-width="1" opacity="0.58"/>
  <path d="M102 53.5 H118 L113.2 59 H106.8 Z" fill="currentColor" opacity="0.12" stroke="none"/>
  <line x1="103.5" y1="52.8" x2="116.5" y2="52.8" stroke-width="1" opacity="0.35"/>
  <rect x="106" y="8" width="8" height="5" rx="1.5" fill="currentColor" opacity="0.3" stroke="none"/>
  <circle cx="82" cy="48" r="2" fill="currentColor" opacity="0.15" stroke="none"/>
  <circle cx="138" cy="48" r="2" fill="currentColor" opacity="0.15" stroke="none"/>
  <circle cx="110" cy="86" r="2" fill="currentColor" opacity="0.2" stroke="none"/>
  <text x="110" y="98" text-anchor="middle" font-size="10" stroke="none" fill="currentColor" font-family="system-ui,sans-serif">RJFTV Face (Shell 19)</text>
</svg>
